<mxfile host="app.diagrams.net" agent="Mozilla/5.0 (Windows NT 10.0; Win64; x64) AppleWebKit/537.36 (KHTML, like Gecko) Chrome/140.0.0.0 Safari/537.36" version="28.2.3">
  <diagram name="Page-1" id="2ZY4DdyfV2wYgqtDZqd-">
    <mxGraphModel dx="512" dy="562" grid="1" gridSize="10" guides="1" tooltips="1" connect="1" arrows="1" fold="1" page="1" pageScale="1" pageWidth="850" pageHeight="1100" math="0" shadow="0">
      <root>
        <mxCell id="0" />
        <mxCell id="1" parent="0" />
        <mxCell id="4dUP67VIj00Ou0xySSIr-3" value="" style="edgeStyle=orthogonalEdgeStyle;rounded=0;orthogonalLoop=1;jettySize=auto;html=1;" edge="1" parent="1" source="4dUP67VIj00Ou0xySSIr-1" target="4dUP67VIj00Ou0xySSIr-2">
          <mxGeometry relative="1" as="geometry" />
        </mxCell>
        <mxCell id="4dUP67VIj00Ou0xySSIr-1" value="ZK Eats" style="rounded=0;whiteSpace=wrap;html=1;" vertex="1" parent="1">
          <mxGeometry x="200" y="10" width="120" height="60" as="geometry" />
        </mxCell>
        <mxCell id="4dUP67VIj00Ou0xySSIr-6" value="" style="edgeStyle=orthogonalEdgeStyle;rounded=0;orthogonalLoop=1;jettySize=auto;html=1;" edge="1" parent="1" source="4dUP67VIj00Ou0xySSIr-2" target="4dUP67VIj00Ou0xySSIr-4">
          <mxGeometry relative="1" as="geometry" />
        </mxCell>
        <mxCell id="4dUP67VIj00Ou0xySSIr-7" value="" style="edgeStyle=orthogonalEdgeStyle;rounded=0;orthogonalLoop=1;jettySize=auto;html=1;" edge="1" parent="1" source="4dUP67VIj00Ou0xySSIr-2" target="4dUP67VIj00Ou0xySSIr-5">
          <mxGeometry relative="1" as="geometry" />
        </mxCell>
        <mxCell id="4dUP67VIj00Ou0xySSIr-2" value="Desinging&lt;div&gt;ui/ux&lt;/div&gt;" style="ellipse;whiteSpace=wrap;html=1;aspect=fixed;" vertex="1" parent="1">
          <mxGeometry x="220" y="110" width="80" height="80" as="geometry" />
        </mxCell>
        <mxCell id="4dUP67VIj00Ou0xySSIr-4" value="Customer Sign Up" style="ellipse;whiteSpace=wrap;html=1;aspect=fixed;" vertex="1" parent="1">
          <mxGeometry x="90" y="110" width="80" height="80" as="geometry" />
        </mxCell>
        <mxCell id="4dUP67VIj00Ou0xySSIr-27" style="edgeStyle=orthogonalEdgeStyle;rounded=0;orthogonalLoop=1;jettySize=auto;html=1;exitX=0.5;exitY=1;exitDx=0;exitDy=0;entryX=1;entryY=0.5;entryDx=0;entryDy=0;" edge="1" parent="1" source="4dUP67VIj00Ou0xySSIr-5" target="4dUP67VIj00Ou0xySSIr-8">
          <mxGeometry relative="1" as="geometry" />
        </mxCell>
        <mxCell id="4dUP67VIj00Ou0xySSIr-5" value="Listing Restaurants&lt;div&gt;and their Cusines&lt;/div&gt;" style="ellipse;whiteSpace=wrap;html=1;aspect=fixed;" vertex="1" parent="1">
          <mxGeometry x="350" y="110" width="80" height="80" as="geometry" />
        </mxCell>
        <mxCell id="4dUP67VIj00Ou0xySSIr-12" value="" style="edgeStyle=orthogonalEdgeStyle;rounded=0;orthogonalLoop=1;jettySize=auto;html=1;" edge="1" parent="1" source="4dUP67VIj00Ou0xySSIr-8" target="4dUP67VIj00Ou0xySSIr-11">
          <mxGeometry relative="1" as="geometry" />
        </mxCell>
        <mxCell id="4dUP67VIj00Ou0xySSIr-8" value="Checkout&lt;div&gt;Page &amp;amp; RTS&lt;/div&gt;" style="ellipse;whiteSpace=wrap;html=1;aspect=fixed;" vertex="1" parent="1">
          <mxGeometry x="220" y="230" width="80" height="80" as="geometry" />
        </mxCell>
        <mxCell id="4dUP67VIj00Ou0xySSIr-14" value="" style="edgeStyle=orthogonalEdgeStyle;rounded=0;orthogonalLoop=1;jettySize=auto;html=1;" edge="1" parent="1" source="4dUP67VIj00Ou0xySSIr-11" target="4dUP67VIj00Ou0xySSIr-13">
          <mxGeometry relative="1" as="geometry" />
        </mxCell>
        <mxCell id="4dUP67VIj00Ou0xySSIr-11" value="Compiling to Apk" style="ellipse;whiteSpace=wrap;html=1;" vertex="1" parent="1">
          <mxGeometry x="200" y="350" width="120" height="80" as="geometry" />
        </mxCell>
        <mxCell id="4dUP67VIj00Ou0xySSIr-16" value="" style="edgeStyle=orthogonalEdgeStyle;rounded=0;orthogonalLoop=1;jettySize=auto;html=1;" edge="1" parent="1" source="4dUP67VIj00Ou0xySSIr-13" target="4dUP67VIj00Ou0xySSIr-15">
          <mxGeometry relative="1" as="geometry" />
        </mxCell>
        <mxCell id="4dUP67VIj00Ou0xySSIr-13" value="No Bugs&lt;div&gt;Found&lt;/div&gt;" style="rhombus;whiteSpace=wrap;html=1;" vertex="1" parent="1">
          <mxGeometry x="220" y="470" width="80" height="80" as="geometry" />
        </mxCell>
        <mxCell id="4dUP67VIj00Ou0xySSIr-18" value="" style="edgeStyle=orthogonalEdgeStyle;rounded=0;orthogonalLoop=1;jettySize=auto;html=1;" edge="1" parent="1" source="4dUP67VIj00Ou0xySSIr-15" target="4dUP67VIj00Ou0xySSIr-17">
          <mxGeometry relative="1" as="geometry" />
        </mxCell>
        <mxCell id="4dUP67VIj00Ou0xySSIr-15" value="&amp;nbsp; &amp;nbsp;Writing Permissions&amp;nbsp;&lt;div&gt;for Deployment&lt;div&gt;&lt;br&gt;&lt;/div&gt;&lt;/div&gt;" style="shape=parallelogram;perimeter=parallelogramPerimeter;whiteSpace=wrap;html=1;fixedSize=1;" vertex="1" parent="1">
          <mxGeometry x="190" y="580" width="140" height="60" as="geometry" />
        </mxCell>
        <mxCell id="4dUP67VIj00Ou0xySSIr-22" value="" style="edgeStyle=orthogonalEdgeStyle;rounded=0;orthogonalLoop=1;jettySize=auto;html=1;" edge="1" parent="1" source="4dUP67VIj00Ou0xySSIr-17" target="4dUP67VIj00Ou0xySSIr-19">
          <mxGeometry relative="1" as="geometry" />
        </mxCell>
        <mxCell id="4dUP67VIj00Ou0xySSIr-17" value="Pushed to&lt;div&gt;Appstore&lt;/div&gt;" style="shape=cylinder3;whiteSpace=wrap;html=1;boundedLbl=1;backgroundOutline=1;size=15;" vertex="1" parent="1">
          <mxGeometry x="230" y="660" width="60" height="80" as="geometry" />
        </mxCell>
        <mxCell id="4dUP67VIj00Ou0xySSIr-24" value="" style="edgeStyle=orthogonalEdgeStyle;rounded=0;orthogonalLoop=1;jettySize=auto;html=1;" edge="1" parent="1" source="4dUP67VIj00Ou0xySSIr-19" target="4dUP67VIj00Ou0xySSIr-23">
          <mxGeometry relative="1" as="geometry" />
        </mxCell>
        <mxCell id="4dUP67VIj00Ou0xySSIr-19" value="Customer Using Application" style="shape=umlActor;verticalLabelPosition=bottom;verticalAlign=top;html=1;outlineConnect=0;" vertex="1" parent="1">
          <mxGeometry x="220" y="770" width="80" height="100" as="geometry" />
        </mxCell>
        <mxCell id="4dUP67VIj00Ou0xySSIr-23" value="Recieved No&lt;div&gt;Feedback&lt;/div&gt;" style="ellipse;shape=cloud;whiteSpace=wrap;html=1;" vertex="1" parent="1">
          <mxGeometry x="200" y="920" width="120" height="80" as="geometry" />
        </mxCell>
        <mxCell id="4dUP67VIj00Ou0xySSIr-26" style="edgeStyle=orthogonalEdgeStyle;rounded=0;orthogonalLoop=1;jettySize=auto;html=1;exitX=0.5;exitY=1;exitDx=0;exitDy=0;entryX=-0.01;entryY=0.588;entryDx=0;entryDy=0;entryPerimeter=0;" edge="1" parent="1" source="4dUP67VIj00Ou0xySSIr-4" target="4dUP67VIj00Ou0xySSIr-8">
          <mxGeometry relative="1" as="geometry" />
        </mxCell>
      </root>
    </mxGraphModel>
  </diagram>
</mxfile>
